<?xml version="1.0" encoding="UTF-8" standalone="no"?>
<!-- Created with Inkscape (http://www.inkscape.org/) -->

<svg
   xmlns:dc="http://purl.org/dc/elements/1.1/"
   xmlns:cc="http://creativecommons.org/ns#"
   xmlns:rdf="http://www.w3.org/1999/02/22-rdf-syntax-ns#"
   xmlns:svg="http://www.w3.org/2000/svg"
   xmlns="http://www.w3.org/2000/svg"
   xmlns:sodipodi="http://sodipodi.sourceforge.net/DTD/sodipodi-0.dtd"
   xmlns:inkscape="http://www.inkscape.org/namespaces/inkscape"
   id="svg2"
   version="1.1"
   inkscape:version="0.48.4 r9939"
   width="36.102264"
   height="210.47556"
   xml:space="preserve"
   sodipodi:docname="headtilt-long.pdf"><metadata
     id="metadata8"><rdf:RDF><cc:Work
         rdf:about=""><dc:format>image/svg+xml</dc:format><dc:type
           rdf:resource="http://purl.org/dc/dcmitype/StillImage" /><dc:title></dc:title></cc:Work></rdf:RDF></metadata><defs
     id="defs6" /><sodipodi:namedview
     pagecolor="#ffffff"
     bordercolor="#666666"
     borderopacity="1"
     objecttolerance="10"
     gridtolerance="10"
     guidetolerance="10"
     inkscape:pageopacity="0"
     inkscape:pageshadow="2"
     inkscape:window-width="1366"
     inkscape:window-height="705"
     id="namedview4"
     showgrid="false"
     inkscape:zoom="1.745121"
     inkscape:cx="-3.4397764"
     inkscape:cy="86.960057"
     inkscape:window-x="-8"
     inkscape:window-y="-8"
     inkscape:window-maximized="1"
     inkscape:current-layer="g10"
     fit-margin-top="0"
     fit-margin-left="0"
     fit-margin-right="0"
     fit-margin-bottom="0" /><g
     id="g10"
     inkscape:groupmode="layer"
     inkscape:label="headtilt-long"
     transform="matrix(0,1.25,1.25,0,-498.43978,-235.78098)"><path
       style="fill:none;stroke:#000000;stroke-width:0.40000000000000002;stroke-linecap:round;stroke-linejoin:round;stroke-miterlimit:10;stroke-opacity:1;stroke-dasharray:none"
       d="m 332.94,403.44 -120.24,0 -1.14,-1.02 -1.26,-0.9 -1.38,-0.78 -1.44,-0.54 -1.44,-0.36 -1.5,-0.3 -1.5,-0.06 -1.5,0.06 -1.5,0.3 -1.56,0.42 -1.32,0.54 -1.38,0.84 -1.26,0.84 -1.14,1.02 -1.02,1.14 -0.9,1.2 -0.72,1.38 -0.6,1.44 -0.42,1.44 -0.24,1.5 -0.12,1.56 0.12,1.5 0.24,1.5 0.42,1.5 0.6,1.44 0.72,1.32 0.9,1.26 1.02,1.08 1.14,1.08 1.26,0.9 1.38,0.72 1.32,0.66 1.56,0.42 1.5,0.18 1.5,0.12 1.5,-0.12 1.5,-0.18 1.44,-0.42 1.44,-0.6 1.38,-0.72 1.26,-0.84 1.14,-1.02 120.24,0 1.14,1.02 1.32,0.84 1.26,0.72 1.44,0.6 1.44,0.42 1.5,0.18 1.62,0.18 1.5,-0.18 1.5,-0.18 1.44,-0.42 1.44,-0.6 1.38,-0.78 1.2,-0.9 1.2,-0.96 0.96,-1.2 0.9,-1.26 0.78,-1.32 0.6,-1.44 0.42,-1.44 0.18,-1.5 0.12,-1.56 -0.12,-1.56 -0.18,-1.5 -0.42,-1.44 -0.6,-1.44 -0.78,-1.38 -0.9,-1.2 -0.96,-1.14 -1.2,-1.02 -1.2,-0.96 -1.38,-0.72 -1.44,-0.54 -1.44,-0.42 -1.5,-0.3 -1.5,-0.06 -1.62,0.06 -1.5,0.3 -1.44,0.36 -1.44,0.54 -1.26,0.78 -1.32,0.9 -1.14,1.02"
       id="path14" /><path
       style="fill:none;stroke:#000000;stroke-width:0.40000000000000002;stroke-linecap:round;stroke-linejoin:round;stroke-miterlimit:10;stroke-opacity:1;stroke-dasharray:none"
       d="m 342.6,408.9 -0.9,0.06 -0.78,0.3 -0.72,0.36 -0.66,0.54 -0.48,0.6 -0.42,0.78 -0.24,0.78 -0.06,0.84 0.06,0.84 0.24,0.78 0.42,0.72 0.48,0.66 0.66,0.48 0.72,0.48 0.78,0.18 0.9,0.06 0.78,-0.06 0.84,-0.18 0.72,-0.48 0.66,-0.48 0.48,-0.66 0.36,-0.72 0.3,-0.78 0.06,-0.84 -0.06,-0.84 -0.3,-0.78 -0.36,-0.78 -0.48,-0.6 -0.66,-0.54 -0.72,-0.36 -0.84,-0.3 -0.78,-0.06"
       id="path18" /><path
       style="fill:none;stroke:#000000;stroke-width:0.40000000000000002;stroke-linecap:round;stroke-linejoin:round;stroke-miterlimit:10;stroke-opacity:1;stroke-dasharray:none"
       d="m 203.1,408.9 -0.84,0.06 -0.78,0.3 -0.72,0.36 -0.66,0.54 -0.54,0.6 -0.42,0.78 -0.18,0.78 -0.12,0.84 0.12,0.84 0.18,0.78 0.42,0.72 0.54,0.66 0.66,0.48 0.72,0.48 0.78,0.18 0.84,0.06 0.78,-0.06 0.84,-0.18 0.72,-0.48 0.6,-0.48 0.6,-0.66 0.36,-0.72 0.24,-0.78 0.12,-0.84 -0.12,-0.84 -0.24,-0.78 -0.36,-0.78 -0.6,-0.6 -0.6,-0.54 -0.72,-0.36 -0.84,-0.3 -0.78,-0.06"
       id="path22" /></g></svg>