<?xml version="1.0" encoding="UTF-8" standalone="no"?>
<!-- Created with Inkscape (http://www.inkscape.org/) -->

<svg
   xmlns:dc="http://purl.org/dc/elements/1.1/"
   xmlns:cc="http://creativecommons.org/ns#"
   xmlns:rdf="http://www.w3.org/1999/02/22-rdf-syntax-ns#"
   xmlns:svg="http://www.w3.org/2000/svg"
   xmlns="http://www.w3.org/2000/svg"
   xmlns:sodipodi="http://sodipodi.sourceforge.net/DTD/sodipodi-0.dtd"
   xmlns:inkscape="http://www.inkscape.org/namespaces/inkscape"
   id="svg2"
   version="1.1"
   inkscape:version="0.48.4 r9939"
   width="204.53294"
   height="95.163048"
   xml:space="preserve"
   sodipodi:docname="headtilt-teardrop.pdf"><metadata
     id="metadata8"><rdf:RDF><cc:Work
         rdf:about=""><dc:format>image/svg+xml</dc:format><dc:type
           rdf:resource="http://purl.org/dc/dcmitype/StillImage" /><dc:title></dc:title></cc:Work></rdf:RDF></metadata><defs
     id="defs6" /><sodipodi:namedview
     pagecolor="#ffffff"
     bordercolor="#666666"
     borderopacity="1"
     objecttolerance="10"
     gridtolerance="10"
     guidetolerance="10"
     inkscape:pageopacity="0"
     inkscape:pageshadow="2"
     inkscape:window-width="1366"
     inkscape:window-height="705"
     id="namedview4"
     showgrid="false"
     fit-margin-top="0"
     fit-margin-left="0"
     fit-margin-right="0"
     fit-margin-bottom="0"
     inkscape:zoom="2.4679739"
     inkscape:cx="29.925728"
     inkscape:cy="29.505716"
     inkscape:window-x="-8"
     inkscape:window-y="-8"
     inkscape:window-maximized="1"
     inkscape:current-layer="g10" /><g
     id="g10"
     inkscape:groupmode="layer"
     inkscape:label="headtilt-teardrop"
     transform="matrix(0,1.25,1.25,0,-408.44759,-293.48723)"><g
       id="g4025"><path
         id="path3126"
         d="m 272.82,337.56 -0.78,0.12 -0.84,0.24 -0.72,0.36 -0.6,0.54 -0.6,0.66 -0.36,0.72 -0.3,0.78 -0.06,0.78 0.06,0.9 0.3,0.78 0.36,0.72 0.6,0.66 0.6,0.48 0.72,0.42 0.84,0.24 0.78,0.06 0.84,-0.06 0.78,-0.24 0.72,-0.42 0.66,-0.48 0.54,-0.66 0.42,-0.72 0.18,-0.78 0.12,-0.9 -0.12,-0.78 -0.18,-0.78 -0.42,-0.72 -0.54,-0.66 -0.66,-0.54 -0.72,-0.36 -0.78,-0.24 -0.84,-0.12"
         style="fill:none;stroke:#000000;stroke-width:0.4;stroke-linecap:round;stroke-linejoin:round;stroke-miterlimit:10;stroke-opacity:1;stroke-dasharray:none" /><path
         id="path3124"
         d="m 264.66,460.2 1.08,1.02 1.08,0.78 1.32,0.66 1.26,0.54 1.32,0.36 1.44,0.12 1.38,0 1.38,-0.12 1.32,-0.36 1.32,-0.54 1.2,-0.66 1.2,-0.78 0.96,-1.02 0.96,-0.96 0.78,-1.2 0.6,-1.26 0.48,-1.32 0.3,-1.38 0.12,-1.32 -0.06,-1.44 -0.18,-1.38 -0.36,-1.38 -0.6,-1.2 -0.66,-1.26 -0.84,-1.14 -1.02,-1.02 -1.08,-0.84 -1.14,-0.72 -1.32,-0.6 -1.26,-0.42 -1.38,-0.24 -1.44,-0.12"
         style="fill:none;stroke:#000000;stroke-width:0.4;stroke-linecap:round;stroke-linejoin:round;stroke-miterlimit:10;stroke-opacity:1;stroke-dasharray:none" /><path
         id="path3122"
         d="m 272.82,441 -1.38,0.12 -1.38,0.24 -1.38,0.42 -1.2,0.6 -1.2,0.72 -1.08,0.84 -0.96,1.02 -0.84,1.14 -0.72,1.26 -0.54,1.2 -0.36,1.38 -0.18,1.38 -0.12,1.44 0.18,1.32 0.3,1.38 0.42,1.32 0.66,1.26 0.78,1.2 0.84,0.96"
         style="fill:none;stroke:#000000;stroke-width:0.4;stroke-linecap:round;stroke-linejoin:round;stroke-miterlimit:10;stroke-opacity:1;stroke-dasharray:none" /><path
         id="path3978"
         transform="matrix(0,0.8,0.8,0,234.78978,326.75807)"
         d="M 158.09375 0.84375 C 157.62225 0.85249528 157.16156 0.84860742 156.6875 0.875 C 110.3765 10.2717 64.124138 20.079737 17.84375 29.625 C 15.7471 29.721812 13.670388 30.221638 11.75 31.0625 C -2.4793875 35.934662 -2.06625 59.970213 12.3125 64.375 C 55.169038 73.2925 98.023475 82.240488 140.90625 91.03125 C 164.26277 100.67279 194.11755 86.534913 201.4375 62.34375 C 212.1927 34.428118 187.79838 0.29279755 158.09375 0.84375 z "
         style="fill:none;stroke:#000000;stroke-width:0.5;stroke-linecap:round;stroke-linejoin:round;stroke-miterlimit:10;stroke-opacity:1;stroke-dasharray:none" /><path
         id="path3118"
         d="m 272.82,426.84 -0.66,0.12 -0.66,0.24 -0.54,0.36 -0.48,0.54 -0.24,0.6 -0.24,0.66 0,0.72 0.24,0.6 0.24,0.6 0.48,0.48 0.54,0.48 0.66,0.18 0.66,0.06 0.72,-0.06 0.66,-0.18 0.48,-0.48 0.48,-0.48 0.3,-0.6 0.18,-0.6 0,-0.72 -0.18,-0.66 -0.3,-0.6 -0.48,-0.54 -0.48,-0.36 -0.66,-0.24 -0.72,-0.12"
         style="fill:none;stroke:#000000;stroke-width:0.4;stroke-linecap:round;stroke-linejoin:round;stroke-miterlimit:10;stroke-opacity:1;stroke-dasharray:none" /><path
         id="path3116"
         d="m 295.5,449.52 -0.66,0.12 -0.66,0.24 -0.54,0.36 -0.48,0.48 -0.24,0.66 -0.24,0.66 0,0.72 0.24,0.6 0.24,0.6 0.48,0.48 0.54,0.48 0.66,0.18 0.66,0.06 0.72,-0.06 0.66,-0.18 0.48,-0.48 0.48,-0.48 0.3,-0.6 0.18,-0.6 0,-0.72 -0.18,-0.66 -0.3,-0.66 -0.48,-0.48 -0.48,-0.36 -0.66,-0.24 -0.72,-0.12"
         style="fill:none;stroke:#000000;stroke-width:0.4;stroke-linecap:round;stroke-linejoin:round;stroke-miterlimit:10;stroke-opacity:1;stroke-dasharray:none" /><path
         id="path3114"
         d="m 272.82,472.2 -0.66,0.12 -0.66,0.24 -0.54,0.36 -0.48,0.48 -0.24,0.66 -0.24,0.66 0,0.72 0.24,0.6 0.24,0.6 0.48,0.48 0.54,0.48 0.66,0.18 0.66,0.06 0.72,-0.06 0.66,-0.18 0.48,-0.48 0.48,-0.48 0.3,-0.6 0.18,-0.6 0,-0.72 -0.18,-0.66 -0.3,-0.66 -0.48,-0.48 -0.48,-0.36 -0.66,-0.24 -0.72,-0.12"
         style="fill:none;stroke:#000000;stroke-width:0.4;stroke-linecap:round;stroke-linejoin:round;stroke-miterlimit:10;stroke-opacity:1;stroke-dasharray:none" /><path
         id="path42"
         d="m 250.14,449.52 -0.66,0.12 -0.66,0.24 -0.54,0.36 -0.48,0.48 -0.24,0.66 -0.24,0.66 0,0.72 0.24,0.6 0.24,0.6 0.48,0.48 0.54,0.48 0.66,0.18 0.66,0.06 0.72,-0.06 0.66,-0.18 0.54,-0.48 0.42,-0.48 0.3,-0.6 0.18,-0.6 0,-0.72 -0.18,-0.66 -0.3,-0.66 -0.42,-0.48 -0.54,-0.36 -0.66,-0.24 -0.72,-0.12"
         style="fill:none;stroke:#000000;stroke-width:0.4;stroke-linecap:round;stroke-linejoin:round;stroke-miterlimit:10;stroke-opacity:1;stroke-dasharray:none" /></g></g></svg>